<svg xmlns="http://www.w3.org/2000/svg" viewBox="0 0 1600 1000" role="img" aria-labelledby="title desc">
  <title id="title">Lariso chef mascot construction placeholder</title>
  <desc id="desc">Construction board placeholder for Lariso chef mascot logo.</desc>
  <rect width="1600" height="1000" fill="#fff9f2"/>
  <rect x="70" y="70" width="1460" height="860" rx="32" fill="#fff3e5" stroke="#dfc7b1" stroke-width="6"/>
  <g opacity=".16" stroke="#8c6f5b" stroke-width="2">
    <path d="M160 120v760M300 120v760M440 120v760M580 120v760M720 120v760M860 120v760M1000 120v760M1140 120v760M1280 120v760M1420 120v760"/>
    <path d="M120 160h1360M120 300h1360M120 440h1360M120 580h1360M120 720h1360M120 860h1360"/>
  </g>
  <g transform="translate(250 210)">
    <path d="M310 0c-64 0-114 48-114 106 0 25 9 49 28 67-81 23-141 98-141 187 0 106 85 191 191 191h183c106 0 191-85 191-191 0-89-60-164-141-187 19-18 28-42 28-67 0-58-50-106-114-106-25 0-49 8-69 23-20-15-44-23-69-23Z" fill="#fffdf9" stroke="#2d2622" stroke-width="18"/>
    <path d="M295 248c32-40 70-60 115-60 44 0 82 20 114 60" fill="none" stroke="#2d2622" stroke-linecap="round" stroke-width="16"/>
    <circle cx="336" cy="331" r="12" fill="#2d2622"/>
    <circle cx="484" cy="331" r="12" fill="#2d2622"/>
    <path d="M348 425c30 23 57 34 80 34 23 0 50-11 80-34" fill="none" stroke="#2d2622" stroke-linecap="round" stroke-width="18"/>
    <path d="M675 110l128-56M690 196h150M670 305l138 62" stroke="#d96c2f" stroke-width="12" stroke-linecap="round"/>
    <path d="M140 110 12 54M125 196H0M145 305 7 367" stroke="#d96c2f" stroke-width="12" stroke-linecap="round"/>
  </g>
  <text x="122" y="150" font-family="Arial, sans-serif" font-size="34" letter-spacing="6" fill="#9b5a2b">CHEF MASCOT CONSTRUCTION</text>
  <text x="1040" y="240" font-family="Georgia, serif" font-size="84" font-weight="700" fill="#b85420">Warmth</text>
  <text x="1040" y="330" font-family="Georgia, serif" font-size="84" font-weight="700" fill="#b85420">Character</text>
  <text x="1040" y="420" font-family="Georgia, serif" font-size="84" font-weight="700" fill="#b85420">Recall</text>
  <text x="1040" y="560" font-family="Arial, sans-serif" font-size="30" fill="#5c4533">This placeholder represents the logo construction board for</text>
  <text x="1040" y="608" font-family="Arial, sans-serif" font-size="30" fill="#5c4533">the chef mascot, facial expression tuning, and proportion notes.</text>
</svg>
